<?xml version="1.0" encoding="UTF-8"?>
<svg xmlns="http://www.w3.org/2000/svg" width="8.501" height="15.723" viewBox="0 0 8.501 15.723">
  <path id="Path_166" data-name="Path 166" d="M30.257,0,28.219,0a3.581,3.581,0,0,0-3.771,3.869V5.653H22.4a.321.321,0,0,0-.321.321V8.559a.321.321,0,0,0,.321.321h2.05V15.4a.32.32,0,0,0,.321.321h2.675a.321.321,0,0,0,.321-.321V8.88h2.4a.32.32,0,0,0,.321-.321V5.974a.321.321,0,0,0-.321-.321h-2.4V4.141c0-.727.173-1.1,1.12-1.1h1.373a.321.321,0,0,0,.32-.321V.324A.321.321,0,0,0,30.257,0Z" transform="translate(-22.077)" fill="#f94123"/>
</svg>
