<?xml version="1.0" encoding="UTF-8"?>
<svg id="Group_5196" data-name="Group 5196"
  xmlns="http://www.w3.org/2000/svg" width="15.653" height="15.653" viewBox="0 0 15.653 15.653">
  <path id="Path_165" data-name="Path 165" d="M131.913,128a3.913,3.913,0,1,0,3.913,3.913A3.913,3.913,0,0,0,131.913,128Zm0,6.359a2.446,2.446,0,1,1,2.446-2.446A2.449,2.449,0,0,1,131.913,134.359Z" transform="translate(-124.087 -124.087)" fill="#161616"/>
  <ellipse id="Ellipse_10" data-name="Ellipse 10" cx="0.521" cy="0.521" rx="0.521" ry="0.521" transform="translate(11.512 3.098)" fill="#161616"/>
  <path id="Path_164" data-name="Path 164" d="M10.761,0H4.892A4.892,4.892,0,0,0,0,4.891v5.87a4.892,4.892,0,0,0,4.892,4.891h5.87a4.892,4.892,0,0,0,4.892-4.891V4.891A4.892,4.892,0,0,0,10.761,0Zm3.424,10.761a3.428,3.428,0,0,1-3.424,3.424H4.892a3.428,3.428,0,0,1-3.424-3.424V4.891A3.428,3.428,0,0,1,4.892,1.467h5.87a3.428,3.428,0,0,1,3.424,3.424Z" fill="#161616"/>
</svg>
