<?xml version="1.0" encoding="UTF-8"?>
<svg xmlns="http://www.w3.org/2000/svg" width="16.216" height="11.475" viewBox="0 0 16.216 11.475">
  <path id="_003-youtube" data-name="003-youtube" d="M12.848,67.393H3.368A3.368,3.368,0,0,0,0,70.761V75.5a3.368,3.368,0,0,0,3.368,3.368h9.481A3.368,3.368,0,0,0,16.216,75.5V70.761A3.368,3.368,0,0,0,12.848,67.393Zm-2.278,5.968L6.136,75.476a.178.178,0,0,1-.255-.161V70.953a.178.178,0,0,1,.258-.159l4.434,2.247A.178.178,0,0,1,10.571,73.361Z" transform="translate(0 -67.393)" fill="#161616"/>
</svg>
