<?xml version="1.0" encoding="UTF-8"?>
<svg xmlns="http://www.w3.org/2000/svg" id="icon_carrinho" width="26.939" height="26.939" viewBox="0 0 26.939 26.939">
  <path id="Path_122" data-name="Path 122" d="M645.284,431.691H627.85a1.15,1.15,0,1,1,0-2.3h17.435a.49.49,0,0,0,.485-.41l2.893-15.355a2.779,2.779,0,0,1,2.75-2.3h1.076a1.15,1.15,0,0,1,0,2.3h-1.076a.492.492,0,0,0-.486.41l-2.892,15.355A2.779,2.779,0,0,1,645.284,431.691Z" transform="translate(-626.7 -411.323)" fill="#fff"></path>
  <path id="Path_123" data-name="Path 123" d="M632.153,436.479a3.2,3.2,0,1,1,3.2-3.2A3.206,3.206,0,0,1,632.153,436.479Zm0-4.107a.9.9,0,1,0,.9.9A.9.9,0,0,0,632.153,432.373Z" transform="translate(-626.486 -409.54)" fill="#fff"></path>
  <path id="Path_124" data-name="Path 124" d="M641.9,436.479a3.2,3.2,0,1,1,3.2-3.2A3.207,3.207,0,0,1,641.9,436.479Zm0-4.107a.9.9,0,1,0,.9.9A.9.9,0,0,0,641.9,432.373Z" transform="translate(-625.559 -409.54)" fill="#fff"></path>
  <g id="Group_24" data-name="Group 24" transform="translate(5.75 2.19)">
    <path id="Path_125" data-name="Path 125" d="M636.85,426.573a1.15,1.15,0,0,1-1.15-1.15V414.473a1.15,1.15,0,1,1,2.3,0v10.951A1.15,1.15,0,0,1,636.85,426.573Z" transform="translate(-631.594 -413.323)" fill="#fff"></path>
    <path id="Path_126" data-name="Path 126" d="M637.206,425.979a1.145,1.145,0,0,1-.812-.337l-4.107-4.107a1.149,1.149,0,0,1,1.625-1.625l4.107,4.107a1.15,1.15,0,0,1-.813,1.962Z" transform="translate(-631.951 -412.729)" fill="#fff"></path>
    <path id="Path_127" data-name="Path 127" d="M636.85,425.979a1.15,1.15,0,0,1-.812-1.962l4.106-4.107a1.149,1.149,0,0,1,1.625,1.625l-4.107,4.107A1.145,1.145,0,0,1,636.85,425.979Z" transform="translate(-631.594 -412.729)" fill="#fff"></path>
  </g>
</svg>
