<?xml version="1.0" encoding="UTF-8"?>
<svg xmlns="http://www.w3.org/2000/svg" width="8.733" height="7.254" viewBox="0 0 8.733 7.254">
  <path id="Path_163" data-name="Path 163" d="M8.242,2.942l.014,0H2.412L4.249,1.1a.482.482,0,0,0,0-.678L3.963.14a.478.478,0,0,0-.675,0L.139,3.288a.481.481,0,0,0,0,.677L3.288,7.114a.479.479,0,0,0,.675,0l.286-.286a.473.473,0,0,0,.139-.337.459.459,0,0,0-.139-.331L2.391,4.309H8.249a.5.5,0,0,0,.484-.49v-.4A.485.485,0,0,0,8.242,2.942Z" transform="translate(8.733 7.254) rotate(180)" fill="#0b55a8"></path>
</svg>
