<?xml version="1.0" encoding="UTF-8"?>
<svg xmlns="http://www.w3.org/2000/svg" id="icon_spotify" width="23.82" height="24.076" viewBox="0 0 23.82 24.076">
  <ellipse id="Ellipse_18" data-name="Ellipse 18" cx="11.91" cy="12.038" rx="11.91" ry="12.038" transform="translate(0 0)" fill="#00d95f"></ellipse>
  <g id="Group_87" data-name="Group 87" transform="translate(4.974 14.382)">
    <path id="Path_224" data-name="Path 224" d="M121.787,232.284a.772.772,0,0,1-.4-.113c-4.69-2.851-10.25-1.2-10.305-1.185a.782.782,0,0,1-.975-.527.792.792,0,0,1,.519-.986c.254-.078,6.269-1.879,11.568,1.343a.8.8,0,0,1,.267,1.085A.78.78,0,0,1,121.787,232.284Z" transform="translate(-110.07 -228.901)" fill="#373225"></path>
  </g>
  <g id="Group_88" data-name="Group 88" transform="translate(4.468 10.508)">
    <path id="Path_225" data-name="Path 225" d="M120.083,205.971a.913.913,0,0,1-.46-.125,15.523,15.523,0,0,0-11.886-1.41.922.922,0,0,1-1.174-.581.937.937,0,0,1,.575-1.187,17.2,17.2,0,0,1,13.408,1.558.94.94,0,0,1,.341,1.276A.922.922,0,0,1,120.083,205.971Z" transform="translate(-106.512 -201.961)" fill="#373225"></path>
  </g>
  <g id="Group_89" data-name="Group 89" transform="translate(3.657 6.306)">
    <path id="Path_226" data-name="Path 226" d="M116.654,177.257a1.124,1.124,0,0,1-.528-.132,19.613,19.613,0,0,0-13.837-1.425,1.136,1.136,0,0,1-1.428-.751,1.153,1.153,0,0,1,.743-1.443,21.676,21.676,0,0,1,15.58,1.582,1.156,1.156,0,0,1,.478,1.553A1.136,1.136,0,0,1,116.654,177.257Z" transform="translate(-100.808 -172.729)" fill="#373225"></path>
  </g>
</svg>
