<?xml version="1.0" encoding="UTF-8"?>
<!-- Generator: Adobe Illustrator 26.3.1, SVG Export Plug-In . SVG Version: 6.00 Build 0)  -->
<svg xmlns="http://www.w3.org/2000/svg" xmlns:xlink="http://www.w3.org/1999/xlink" version="1.1" id="Layer_1" x="0px" y="0px" viewBox="0 0 42.1 49.7" style="enable-background:new 0 0 42.1 49.7;" xml:space="preserve">
<style type="text/css">
	.st0{fill:#FFFFFF;}
</style>
<path class="st0" d="M37.1,15.3c-0.7,0-1.4,0.1-2,0.4c-0.8-1.9-2.6-3.2-4.7-3.2c-0.8,0-1.5,0.2-2.2,0.5c-0.9-1.7-2.6-2.7-4.4-2.7  c-0.6,0-1.1,0.1-1.6,0.3V5.1c0-2.8-2.2-5-5-5c-2.8,0-5,2.2-5,5v20l-3.6-4.1c0,0-0.1-0.1-0.1-0.1c-0.9-0.9-2.2-1.5-3.6-1.5h0  c-1.3,0-2.6,0.5-3.5,1.5c-1.7,1.7-1.8,4.1-0.3,6.8C3,31,5.1,34.2,7,37.1c1.4,2.1,2.6,4,3.6,5.7c0.8,1.4,3,6,3,6c0.3,0.6,0.9,1,1.5,1  h21.5c0.7,0,1.4-0.5,1.6-1.2c0.4-1.2,3.9-12.3,3.9-16.5V20.4C42.1,17.6,39.8,15.3,37.1,15.3z M38.7,20.4V32c0,2.8-2.2,10.4-3.4,14.3  H16.2c-0.7-1.5-2-4.2-2.7-5.3c-1-1.7-2.3-3.7-3.7-5.8c-1.8-2.8-3.9-6-5.8-9.3c-0.5-0.9-0.9-2-0.3-2.7c0.3-0.3,0.7-0.5,1.1-0.5  c0.4,0,0.8,0.2,1.1,0.5l6.5,7.5c0.6,0.7,1.7,0.8,2.4,0.1c0.4-0.3,0.6-0.8,0.6-1.3V5.1c0-0.9,0.7-1.6,1.6-1.7c0.9,0,1.6,0.7,1.7,1.6  c0,0,0,0.1,0,0.1v15.8c0.1,0.9,0.9,1.7,1.8,1.6c0.9-0.1,1.5-0.7,1.6-1.6v-5.5c0-0.9,0.7-1.6,1.6-1.6c0.9,0,1.6,0.7,1.6,1.6  c0,0,0,0,0,0v7.7c-0.1,0.9,0.7,1.7,1.6,1.8c0.9,0.1,1.7-0.7,1.8-1.6c0-0.1,0-0.1,0-0.2v-5.5c0-0.9,0.7-1.6,1.6-1.7  c0.9,0,1.6,0.7,1.7,1.6c0,0,0,0.1,0,0.1v7.7c-0.1,0.9,0.7,1.7,1.6,1.8c0.9,0.1,1.7-0.7,1.8-1.6c0-0.1,0-0.1,0-0.2v-4.9v0  c0-0.9,0.7-1.6,1.6-1.6S38.7,19.5,38.7,20.4C38.7,20.4,38.7,20.4,38.7,20.4z"></path>
</svg>
