<svg xmlns="http://www.w3.org/2000/svg" xmlns:xlink="http://www.w3.org/1999/xlink" width="500" zoomAndPan="magnify" viewBox="0 0 375 374.999991" height="500" preserveAspectRatio="xMidYMid meet" version="1.0"><path fill="#ffffff" d="M 187.5 0 C 83.929688 0 0 83.929688 0 187.5 C 0 291.070312 83.929688 375 187.5 375 C 291.070312 375 375 291.070312 375 187.5 C 374.835938 83.929688 290.910156 0 187.5 0 Z M 295.453125 239.933594 C 293.34375 253.734375 281.332031 263.796875 267.371094 263.796875 L 107.46875 263.796875 C 93.507812 263.796875 81.492188 253.734375 79.382812 239.933594 C 77.433594 227.109375 75.488281 209.253906 75.324219 187.335938 C 75.488281 165.421875 77.273438 147.726562 79.382812 134.742188 C 81.492188 120.941406 93.507812 110.875 107.46875 110.875 L 267.371094 110.875 C 281.332031 110.875 293.34375 120.941406 295.453125 134.742188 C 297.402344 147.566406 299.351562 165.421875 299.511719 187.335938 C 299.351562 209.253906 297.402344 227.109375 295.453125 239.933594 Z M 295.453125 239.933594 " fill-opacity="1" fill-rule="nonzero"/><path fill="#ffffff" d="M 163.796875 156.980469 L 163.796875 217.855469 L 220.453125 187.5 Z M 163.796875 156.980469 " fill-opacity="1" fill-rule="nonzero"/></svg>